<svg id="_034-microchip" data-name="034-microchip" xmlns="http://www.w3.org/2000/svg" width="54.718" height="54.717" viewBox="0 0 54.718 54.717">
  <g id="Group_76" data-name="Group 76" transform="translate(0 0)">
    <path id="Path_230" data-name="Path 230" d="M37.47,22.537a17.6,17.6,0,0,0-20.222,0,1.6,1.6,0,0,0,1.842,2.624,14.4,14.4,0,0,1,16.537,0,1.6,1.6,0,1,0,1.842-2.624Zm-3.676,5.251a11.2,11.2,0,0,0-12.87,0,1.6,1.6,0,0,0,1.842,2.624,8,8,0,0,1,9.186,0,1.6,1.6,0,1,0,1.842-2.624Zm-3.676,5.25a4.81,4.81,0,0,0-5.518,0,1.6,1.6,0,1,0,1.841,2.625,1.6,1.6,0,0,1,1.837,0,1.6,1.6,0,1,0,1.841-2.625Zm23-7.282a1.6,1.6,0,1,0,0-3.206H44.992V19.343h4.916a4.815,4.815,0,0,0,4.809-4.809,1.6,1.6,0,0,0-3.206,0,1.6,1.6,0,0,1-1.6,1.6H44.992V14.528a1.594,1.594,0,0,0-.543-1.2l-3.132-3.132a1.6,1.6,0,0,0-1.133-.469h-1.6V4.809a1.6,1.6,0,0,1,1.6-1.6,1.6,1.6,0,1,0,0-3.206,4.815,4.815,0,0,0-4.809,4.809V9.725H32.168V1.6a1.6,1.6,0,0,0-3.206,0V9.725H25.756V1.6a1.6,1.6,0,0,0-3.206,0V9.725H19.343V4.809A4.815,4.815,0,0,0,14.534,0a1.6,1.6,0,1,0,0,3.206,1.6,1.6,0,0,1,1.6,1.6V9.725h-1.6a1.6,1.6,0,0,0-1.133.47L10.195,13.4a1.6,1.6,0,0,0-.47,1.133v1.6H4.809a1.6,1.6,0,0,1-1.6-1.6,1.6,1.6,0,0,0-3.206,0,4.815,4.815,0,0,0,4.809,4.809H9.725V22.55H1.6a1.6,1.6,0,1,0,0,3.206H9.725v3.206H1.6a1.6,1.6,0,1,0,0,3.206H9.725v3.206H4.809A4.815,4.815,0,0,0,0,40.183a1.6,1.6,0,0,0,3.206,0,1.6,1.6,0,0,1,1.6-1.6H9.725V40.2a1.6,1.6,0,0,0,.613,1.261L13.4,44.523a1.6,1.6,0,0,0,1.134.469h1.6v4.916a1.6,1.6,0,0,1-1.6,1.6,1.6,1.6,0,1,0,0,3.206,4.815,4.815,0,0,0,4.809-4.809V44.992H22.55v8.122a1.6,1.6,0,0,0,3.206,0V44.992h3.206v8.122a1.6,1.6,0,0,0,3.206,0V44.992h3.206v4.916a4.815,4.815,0,0,0,4.809,4.809,1.6,1.6,0,1,0,0-3.206,1.6,1.6,0,0,1-1.6-1.6V44.992h1.606a1.6,1.6,0,0,0,1.182-.521l3.154-3.154a1.6,1.6,0,0,0,.469-1.134v-1.6h4.916a1.6,1.6,0,0,1,1.6,1.6,1.6,1.6,0,0,0,3.206,0,4.815,4.815,0,0,0-4.809-4.809H44.992V32.168h8.122a1.6,1.6,0,1,0,0-3.206H44.992V25.756ZM41.786,39.519l-2.267,2.267H15.2l-2.267-2.267V15.2L15.2,12.931H39.519L41.786,15.2Z" transform="translate(0 0)" fill="#ef452e"/>
  </g>
</svg>
